<?xml version="1.0" encoding="UTF-8" standalone="no"?>
<svg
   height="2983.8328"
   width="4254.2871"
   viewBox="1.313 0.263 867.25685 608.26744"
   version="1.1"
   id="svg18"
   sodipodi:docname="mendec.svg"
   inkscape:version="1.2.2 (1:1.2.2+202212051552+b0a8486541)"
   inkscape:export-filename="mendec.png"
   inkscape:export-xdpi="8.6700001"
   inkscape:export-ydpi="8.6700001"
   xmlns:inkscape="http://www.inkscape.org/namespaces/inkscape"
   xmlns:sodipodi="http://sodipodi.sourceforge.net/DTD/sodipodi-0.dtd"
   xmlns:xlink="http://www.w3.org/1999/xlink"
   xmlns="http://www.w3.org/2000/svg"
   xmlns:svg="http://www.w3.org/2000/svg">
  <defs
     id="defs22">
    <linearGradient
       inkscape:collect="always"
       xlink:href="#linearGradient4689"
       id="linearGradient1478"
       gradientUnits="userSpaceOnUse"
       gradientTransform="matrix(2.1147767,0,0,2.1351937,-53.412712,-43.730617)"
       x1="26.648937"
       y1="20.603781"
       x2="135.66525"
       y2="114.39767" />
    <linearGradient
       id="linearGradient4689">
      <stop
         style="stop-color:#5a9fd4;stop-opacity:1;"
         offset="0"
         id="stop4691" />
      <stop
         style="stop-color:#306998;stop-opacity:1;"
         offset="1"
         id="stop4693" />
    </linearGradient>
    <linearGradient
       inkscape:collect="always"
       xlink:href="#linearGradient4671"
       id="linearGradient1475"
       gradientUnits="userSpaceOnUse"
       gradientTransform="matrix(2.1147767,0,0,2.1351937,394.32114,142.03082)"
       x1="150.96111"
       y1="192.35176"
       x2="112.03144"
       y2="137.27299" />
    <linearGradient
       id="linearGradient4671">
      <stop
         style="stop-color:#ffd43b;stop-opacity:1;"
         offset="0"
         id="stop4673" />
      <stop
         style="stop-color:#ffe873;stop-opacity:1"
         offset="1"
         id="stop4675" />
    </linearGradient>
  </defs>
  <sodipodi:namedview
     id="namedview20"
     pagecolor="#505050"
     bordercolor="#ffffff"
     borderopacity="1"
     inkscape:showpageshadow="0"
     inkscape:pageopacity="0"
     inkscape:pagecheckerboard="1"
     inkscape:deskcolor="#505050"
     showgrid="false"
     inkscape:zoom="0.0944"
     inkscape:cx="1334.7458"
     inkscape:cy="1297.6695"
     inkscape:window-width="1366"
     inkscape:window-height="711"
     inkscape:window-x="0"
     inkscape:window-y="33"
     inkscape:window-maximized="1"
     inkscape:current-layer="svg18" />
  <g
     id="g705"
     transform="translate(-385.6809,550.28528)">
    <path
       d="M 483.82811,-393.79558 V -52.499244 H 964.9536 l 39.7322,-85.855666 40.3627,86.473778 h 120.3709 V -393.83268 l -681.59129,0.0395"
       style="fill:#ed1c24;fill-opacity:1;fill-rule:nonzero;stroke:none;stroke-width:9.88979"
       id="path17137" />
    <path
       d="m 818.84446,-332.02156 c -42.50132,0 -69.22849,19.43344 -69.22849,52.53947 3e-5,37.77895 37.59353,48.32395 66.75605,56.55719 30.37396,8.5794 40.79534,18.38263 40.79534,33.06896 0,24.4772 -24.82338,28.43312 -40.17723,28.43312 -21.08997,0 -38.29819,-5.88442 -55.321,-16.37995 l -14.52561,24.41539 c 21.4732,13.25231 43.53977,19.47051 69.84661,19.47051 43.92301,-1e-5 73.24617,-22.87012 73.24617,-58.10246 0,-39.34897 -35.66503,-49.96814 -65.51979,-58.41154 -30.41106,-8.60411 -42.03157,-15.92254 -42.03157,-30.59648 0,-22.23967 27.01146,-24.4154 36.77764,-24.4154 15.31679,0 34.82436,5.16742 46.35831,11.12598 l 12.36224,-24.10633 c -15.57641,-8.04781 -39.38605,-13.59846 -59.33867,-13.59846 z m -252.18943,3.09056 v 190.06924 h 28.74219 v -162.25421 h 49.13984 c 16.37994,0 34.00847,8.60412 34.30519,29.05122 0.24708,18.19719 -13.43775,29.61989 -36.4686,30.59653 h -17.92521 l 58.41152,102.91552 33.99611,-0.30904 -45.74024,-80.66353 c 25.9607,-9.69198 38.61962,-31.00447 38.3229,-52.84855 -0.46975,-33.14313 -26.57877,-56.55718 -63.35641,-56.55718 z m 421.86098,1.85433 -80.97258,188.83302 h 35.54138 l 61.50209,-148.03767 64.2836,148.03767 35.5414,-0.30907 -82.827,-188.52398 z"
       style="fill:#ffffff;fill-opacity:1;fill-rule:nonzero;stroke:none;stroke-width:9.88979"
       id="path17139" />
  </g>
  <path
     style="fill:url(#linearGradient1475);fill-opacity:1;stroke-width:3.75933"
     d="m 772.61736,293.75558 v 44.75958 c 0,34.70138 -29.4201,63.90857 -62.96874,63.90857 H 608.96908 c -27.5778,0 -50.3985,23.60291 -50.3985,51.22083 v 95.98042 c 0,27.31659 23.75364,43.38386 50.3985,51.22083 31.90667,9.38178 62.50351,11.07745 100.67954,0 25.37604,-7.34717 50.39854,-22.13351 50.39844,-51.22083 V 511.20936 H 659.3676 v -12.80521 h 100.67946 50.3986 c 29.2944,0 40.2107,-20.4336 50.3985,-51.10336 10.5236,-31.5743 10.0758,-61.93794 0,-102.44185 -7.2397,-29.16274 -21.0668,-51.10335 -50.3985,-51.10335 z m -56.62488,243.06419 c 10.44898,0 18.91408,8.56151 18.91408,19.14898 0,10.62527 -8.4651,19.26664 -18.91408,19.26664 -10.41164,0 -18.91412,-8.64137 -18.91412,-19.26664 2e-5,-10.58747 8.50247,-19.14898 18.91412,-19.14898 z"
     id="path1950" />
  <path
     style="fill:url(#linearGradient1478);fill-opacity:1;stroke-width:3.75933"
     d="m 209.40163,0.26595307 c -17.23147,0.0738 -33.68711,1.54905003 -48.16641,4.11164003 -42.65415,7.5356399 -50.3985,23.3082199 -50.3985,52.3957199 v 38.41563 H 211.63374 V 107.99414 H 110.83672 73.008473 c -29.29442,0 -54.945455,17.60768 -62.968767,51.10336 -9.2547928,38.39387 -9.6652924,62.35232 0,102.44185 7.165022,29.84101 24.276032,51.10336 53.570447,51.10336 h 34.656298 v -46.05176 c 0,-33.26979 28.785739,-62.61639 62.968769,-62.61639 h 100.67954 c 28.02561,0 50.39852,-23.07531 50.3985,-51.22084 V 56.773313 c 0,-27.31659 -23.04461,-47.8366699 -50.3985,-52.3957199 C 244.59933,1.4952431 226.6331,0.18592307 209.40163,0.26595307 Z M 154.89135,31.162903 c 10.41165,0 18.91413,8.64137 18.91413,19.26646 -10e-6,10.58764 -8.50248,19.14917 -18.91413,19.14917 -10.44895,0 -18.91412,-8.56153 -18.91412,-19.14917 0,-10.62509 8.46517,-19.26646 18.91412,-19.26646 z"
     id="path1948" />
  <g
     id="g731"
     transform="matrix(0,0.36636021,-0.36636021,0,808.28836,22.056373)"
     style="fill:#1a5fb4">
    <path
       d="m 629.549,388.2 c 42.9,-42.9 66.602,-100.1 66.602,-160.8 0,-60.7 -23.701,-117.9 -66.602,-160.8 C 586.549,23.7 529.449,0 468.75,0 c -60.7,0 -117.8,23.7 -160.8,66.6 -42.9,42.9 -66.6,100.1 -66.6,160.8 0,60.7 23.7,117.8 66.6,160.8 27.8,27.8 61.5,47.5 98.3,57.899 v 190.5 161.7 V 875 c 0,34.5 28,62.5 62.5,62.5 34.5,0 62.5,-28 62.5,-62.5 v -14.2 h 35.799 c 34.5,0 62.5,-28 62.5,-62.5 0,-34.5 -28,-62.5 -62.5,-62.5 H 531.25 v -36.7 h 35.799 c 34.5,0 62.5,-28 62.5,-62.5 0,-34.5 -28,-62.5 -62.5,-62.5 H 531.25 v -128 c 36.799,-10.4 70.5,-30.1 98.299,-57.9 z m -263.2,-160.8 c 0,-56.5 45.9,-102.4 102.4,-102.4 56.5,0 102.401,45.9 102.401,102.4 0,56.5 -45.9,102.4 -102.401,102.4 -56.499,0 -102.4,-46 -102.4,-102.4 z"
       id="path729"
       style="fill:#1a5fb4" />
  </g>
  <g
     id="g914"
     transform="matrix(0,-0.25047171,0.25047171,0,74.234355,566.61135)"
     style="fill:#ff7800">
    <path
       d="m 629.549,388.2 c 42.9,-42.9 66.602,-100.1 66.602,-160.8 0,-60.7 -23.701,-117.9 -66.602,-160.8 C 586.549,23.7 529.449,0 468.75,0 c -60.7,0 -117.8,23.7 -160.8,66.6 -42.9,42.9 -66.6,100.1 -66.6,160.8 0,60.7 23.7,117.8 66.6,160.8 27.8,27.8 61.5,47.5 98.3,57.899 v 190.5 161.7 V 875 c 0,34.5 28,62.5 62.5,62.5 34.5,0 62.5,-28 62.5,-62.5 v -14.2 h 35.799 c 34.5,0 62.5,-28 62.5,-62.5 0,-34.5 -28,-62.5 -62.5,-62.5 H 531.25 v -36.7 h 35.799 c 34.5,0 62.5,-28 62.5,-62.5 0,-34.5 -28,-62.5 -62.5,-62.5 H 531.25 v -128 c 36.799,-10.4 70.5,-30.1 98.299,-57.9 z m -263.2,-160.8 c 0,-56.5 45.9,-102.4 102.4,-102.4 56.5,0 102.401,45.9 102.401,102.4 0,56.5 -45.9,102.4 -102.401,102.4 -56.499,0 -102.4,-46 -102.4,-102.4 z"
       id="path912"
       style="fill:#ff7800" />
  </g>
</svg>
